<svg width="146" height="72" viewBox="0 0 146 72" fill="none" xmlns="http://www.w3.org/2000/svg">
<path d="M9.77591e-05 65L21.7001 -3.57628e-06H30.5001L52.2001 65H44.4001L38.5001 47H13.3001L7.4001 65H9.77591e-05ZM15.6001 40H36.2001L25.9001 8.6L15.6001 40ZM65.3079 65V-3.57628e-06H72.7079V58H105.508V65H65.3079ZM117.906 65V40.3086H113.585V37.2222H121.61V65H117.906ZM126.028 66.9753C128.374 67.6749 130.76 68.0247 133.188 68.0247C136.028 68.0247 138.188 67.4486 139.67 66.2963C141.151 65.1852 141.892 63.4979 141.892 61.2346C141.892 59.0947 141.172 57.5309 139.732 56.5432C138.332 55.5556 136.213 55.0617 133.374 55.0617H131.583V52.037H132.818C135.287 52.037 137.201 51.4198 138.559 50.1852C139.958 48.9506 140.658 47.2428 140.658 45.0617C140.658 43.3333 140.184 42.0165 139.238 41.1111C138.291 40.1646 136.81 39.6914 134.793 39.6914C132.983 39.6914 131.337 40 129.855 40.6173V44.6296H126.645V38.7654C129.361 37.3251 132.16 36.6049 135.04 36.6049C138.003 36.6049 140.328 37.3663 142.016 38.8889C143.703 40.4115 144.546 42.3868 144.546 44.8148C144.546 48.4774 142.571 51.214 138.621 53.0247V53.1481C143.394 54.177 145.781 56.8724 145.781 61.2346C145.781 62.6749 145.493 63.9918 144.917 65.1852C144.382 66.4198 143.579 67.4691 142.509 68.3333C141.439 69.2387 140.102 69.9383 138.497 70.4321C136.892 70.9259 135.061 71.1728 133.003 71.1728C130.534 71.1728 128.209 70.8436 126.028 70.1852V66.9753Z" fill="white"/>
</svg>
