<svg width="249" height="49" viewBox="0 0 249 49" fill="none" xmlns="http://www.w3.org/2000/svg">
<path d="M9.4 0.999998C10.3 0.999998 11.7167 3.18333 13.65 7.55C15.5833 11.9167 16.55 14.9333 16.55 16.6V31.85C16.55 32.6167 16.75 33.3667 17.15 34.1C17.5833 34.8333 18.1833 35.25 18.95 35.35V36.45C18.7167 36.4833 16.9 37.5 13.5 39.5C12.7333 39.1667 12.0333 38.6833 11.4 38.05C10.8 37.3833 10.5 36.7667 10.5 36.2C6.93333 38.4 4.85 39.5 4.25 39.5C4.01667 39.5 3.56667 39.25 2.9 38.75C2.26667 38.2167 1.61667 37.4667 0.95 36.5C0.316667 35.5 3.72529e-08 34.4833 3.72529e-08 33.45V15.6C3.72529e-08 15.2667 2.81667 14.1167 8.45 12.15C7.25 9.51666 6.28333 7.66666 5.55 6.6C4.81667 5.53333 4.1 5 3.4 5H1.75V3.5C5.45 1.83333 8 0.999998 9.4 0.999998ZM8.55 34.9C9.18333 34.9 9.83333 34.6333 10.5 34.1V16.7C10.5 16.5 10.35 16.0833 10.05 15.45C9.78333 14.7833 9.58333 14.45 9.45 14.45C8.48333 14.45 7.5 14.75 6.5 15.35L6 15.65V31.2C6 33.6667 6.85 34.9 8.55 34.9ZM36.4844 14.4V32.1C36.4844 34.1333 37.1677 35.2833 38.5344 35.55V36.65L33.4844 39.5C32.751 39.2 32.0677 38.7167 31.4344 38.05C30.801 37.35 30.4844 36.7 30.4844 36.1V18.4C30.4844 16.3667 29.801 15.2167 28.4344 14.95V13.85L33.4844 11C34.2177 11.3 34.901 11.8 35.5344 12.5C36.1677 13.1667 36.4844 13.8 36.4844 14.4ZM29.7344 4.75V1.7C29.7344 1.6 30.4177 1.3 31.7844 0.799998C33.1844 0.266665 33.9844 -1.07288e-06 34.1844 -1.07288e-06C34.4177 -1.07288e-06 34.7344 0.283332 35.1344 0.849997C35.5677 1.41666 35.7844 2 35.7844 2.6V6.25C35.7844 6.35 35.1177 6.66666 33.7844 7.2C32.451 7.7 31.6344 7.95 31.3344 7.95C31.0344 7.95 30.6844 7.66667 30.2844 7.1C29.9177 6.5 29.7344 5.71667 29.7344 4.75ZM50.4707 36.1V19.15C50.4707 18.05 50.2374 17.1 49.7707 16.3C49.304 15.5 48.7207 15.1 48.0207 15.1V14C48.254 13.9667 50.0707 12.95 53.4707 10.95C53.704 11.0167 53.9874 11.1167 54.3207 11.25C54.654 11.35 55.0874 11.6667 55.6207 12.2C56.1874 12.7333 56.4707 13.35 56.4707 14.05C56.6707 13.95 57.2374 13.6333 58.1707 13.1C60.6374 11.7 62.104 11 62.5707 11C63.6374 11 64.6374 11.7 65.5707 13.1C66.504 14.5 66.9707 15.7833 66.9707 16.95V32.1C66.9707 33.9333 67.7874 35.0167 69.4207 35.35V36.45L63.9707 39.5C63.2374 39.2 62.554 38.7167 61.9207 38.05C61.2874 37.35 60.9707 36.7 60.9707 36.1V21.6C60.9707 19.7333 60.754 18.3167 60.3207 17.35C59.9207 16.35 59.1874 15.85 58.1207 15.85L56.4707 16.15V32.1C56.4707 34.1333 57.154 35.2833 58.5207 35.55V36.65L53.4707 39.5C52.7374 39.2 52.054 38.7167 51.4207 38.05C50.7874 37.35 50.4707 36.7 50.4707 36.1ZM80.9551 15.65C80.9551 15.3167 82.7884 14.4667 86.4551 13.1C90.1551 11.7 92.4217 11 93.2551 11C94.0884 11 95.0051 11.7667 96.0051 13.3C97.0051 14.8 97.5051 16.4667 97.5051 18.3V34.2C97.5051 35.4667 96.9384 37.2667 95.8051 39.6C94.6717 41.9667 93.4717 44.0333 92.2051 45.8C90.9384 47.6 90.0717 48.5 89.6051 48.5C88.7717 48.5 87.6551 48.25 86.2551 47.75C84.8551 47.25 83.6551 46.75 82.6551 46.25L81.2051 45.5V44H82.9051C84.2051 44 85.6884 43.25 87.3551 41.75C89.0217 40.2833 90.4051 38.3167 91.5051 35.85C87.7384 37.6167 85.5717 38.5 85.0051 38.5C83.9717 38.5 83.0384 37.85 82.2051 36.55C81.3717 35.2167 80.9551 33.7333 80.9551 32.1V15.65ZM91.5051 20C91.5051 17.0667 90.7384 15.6 89.2051 15.6C88.4051 15.6 87.6717 15.8667 87.0051 16.4V27.9C87.0051 30.2333 87.3717 31.8 88.1051 32.6C88.8384 33.3667 89.9717 33.75 91.5051 33.75V20ZM123.738 11C123.905 11 124.322 11.2667 124.988 11.8C125.655 12.3 126.322 13.0167 126.988 13.95C127.655 14.85 127.988 15.7333 127.988 16.6V25C127.988 25.6 127.105 26.3333 125.338 27.2C123.572 28.0667 121.855 28.7833 120.188 29.35C118.555 29.8833 117.672 30.15 117.538 30.15C117.538 32.7167 118.655 34.3 120.888 34.9C121.988 35.1667 123.305 35.3 124.838 35.3V36.75C119.372 38.5833 116.455 39.5 116.088 39.5C115.088 39.5 114.072 38.8 113.038 37.4C112.005 35.9667 111.488 34.3 111.488 32.4V15.6C111.488 15.3667 113.388 14.55 117.188 13.15C120.988 11.7167 123.172 11 123.738 11ZM121.988 18.95C121.988 18.0167 121.772 17.2333 121.338 16.6C120.905 15.9333 120.355 15.6 119.688 15.6C119.022 15.6 118.288 15.85 117.488 16.35V27.9C120.488 27.0667 121.988 25.2667 121.988 22.5V18.95ZM141.729 36.3V33.25C141.729 33.15 142.412 32.85 143.779 32.35C145.179 31.8167 145.979 31.55 146.179 31.55C146.412 31.55 146.729 31.8333 147.129 32.4C147.562 32.9667 147.779 33.55 147.779 34.15V37.8C147.779 37.9 147.112 38.2167 145.779 38.75C144.445 39.25 143.629 39.5 143.329 39.5C143.029 39.5 142.679 39.2167 142.279 38.65C141.912 38.05 141.729 37.2667 141.729 36.3ZM167.764 4.45V32.1C167.764 34.1333 168.447 35.2833 169.814 35.55V36.65L164.764 39.5C164.03 39.2 163.347 38.7167 162.714 38.05C162.08 37.35 161.764 36.7 161.764 36.1V8.45C161.764 6.41666 161.08 5.26666 159.714 5V3.9L164.764 1.05C165.497 1.35 166.18 1.85 166.814 2.55C167.447 3.21666 167.764 3.85 167.764 4.45ZM187.75 14.4V32.1C187.75 34.1333 188.433 35.2833 189.8 35.55V36.65L184.75 39.5C184.017 39.2 183.333 38.7167 182.7 38.05C182.067 37.35 181.75 36.7 181.75 36.1V18.4C181.75 16.3667 181.067 15.2167 179.7 14.95V13.85L184.75 11C185.483 11.3 186.167 11.8 186.8 12.5C187.433 13.1667 187.75 13.8 187.75 14.4ZM181 4.75V1.7C181 1.6 181.683 1.3 183.05 0.799998C184.45 0.266665 185.25 -1.07288e-06 185.45 -1.07288e-06C185.683 -1.07288e-06 186 0.283332 186.4 0.849997C186.833 1.41666 187.05 2 187.05 2.6V6.25C187.05 6.35 186.383 6.66666 185.05 7.2C183.717 7.7 182.9 7.95 182.6 7.95C182.3 7.95 181.95 7.66667 181.55 7.1C181.183 6.5 181 5.71667 181 4.75ZM218.286 17.85V34.85C218.286 35.15 216.503 36 212.936 37.4C209.37 38.8 207.07 39.5 206.036 39.5C205.003 39.5 204.02 38.7167 203.086 37.15C202.186 35.5833 201.736 34.2 201.736 33V18.35C201.736 16.5167 200.92 15.4333 199.286 15.1V14L204.736 10.95C205.47 11.25 206.12 11.7167 206.686 12.35C207.286 12.9833 207.636 13.55 207.736 14.05L213.836 11C214.836 11 215.82 11.7167 216.786 13.15C217.786 14.5833 218.286 16.15 218.286 17.85ZM207.736 32.8C207.736 33.6333 207.97 34.3333 208.436 34.9C208.903 35.4667 209.403 35.75 209.936 35.75C210.47 35.75 211.236 35.5 212.236 35V20.85C212.236 18.7167 211.92 17.3333 211.286 16.7C210.653 16.0667 209.47 15.75 207.736 15.75V32.8ZM244.471 11C244.637 11 245.054 11.2667 245.721 11.8C246.387 12.3 247.054 13.0167 247.721 13.95C248.387 14.85 248.721 15.7333 248.721 16.6V25C248.721 25.6 247.837 26.3333 246.071 27.2C244.304 28.0667 242.587 28.7833 240.921 29.35C239.287 29.8833 238.404 30.15 238.271 30.15C238.271 32.7167 239.387 34.3 241.621 34.9C242.721 35.1667 244.037 35.3 245.571 35.3V36.75C240.104 38.5833 237.187 39.5 236.821 39.5C235.821 39.5 234.804 38.8 233.771 37.4C232.737 35.9667 232.221 34.3 232.221 32.4V15.6C232.221 15.3667 234.121 14.55 237.921 13.15C241.721 11.7167 243.904 11 244.471 11ZM242.721 18.95C242.721 18.0167 242.504 17.2333 242.071 16.6C241.637 15.9333 241.087 15.6 240.421 15.6C239.754 15.6 239.021 15.85 238.221 16.35V27.9C241.221 27.0667 242.721 25.2667 242.721 22.5V18.95Z" fill="white"/>
</svg>
