<svg width="231" height="33" viewBox="0 0 231 33" fill="none" xmlns="http://www.w3.org/2000/svg">
<path d="M1.19209e-07 32.15V9.04999H5.05V32.15H1.19209e-07ZM1.19209e-07 5.04999V-1.43051e-05H5.05V5.04999H1.19209e-07ZM27.6203 32.15V27.65H23.1203V14.05H18.5703V9.04999H23.1203V-1.43051e-05H28.1203V9.04999H41.8203V14.05H28.1203V27.15H41.3203V22.6H46.3703V27.65H41.8203V32.15H27.6203ZM64.4445 32.15V27.65H59.8945V13.6H64.4445V9.04999H78.5445V13.6H83.1445V27.15H87.6945V32.15H82.6445V27.65H78.5445V32.15H64.4445ZM64.9445 27.15H78.0445V14.05H64.9445V27.15ZM101.219 32.15V9.04999H119.869V13.6H124.469V32.15H119.369V14.05H106.269V32.15H101.219ZM139.516 32.15V9.04999H144.566V32.15H139.516ZM139.516 5.04999V-1.43051e-05H144.566V5.04999H139.516ZM164.15 32.15V27.65H159.6V9.04999H164.65V27.15H177.75V9.04999H182.85V27.65H178.25V32.15H164.15ZM197.896 32.15V9.04999H212.046V13.6H216.046V9.04999H225.696V13.6H230.196V32.15H225.196V14.05H216.546V32.15H211.546V14.05H202.946V32.15H197.896Z" fill="white"/>
</svg>
