<svg width="229" height="33" viewBox="0 0 229 33" fill="none" xmlns="http://www.w3.org/2000/svg">
<path d="M1.19209e-07 32.15V9.04999H5.05V32.15H1.19209e-07ZM1.19209e-07 5.04999V-1.43051e-05H5.05V5.04999H1.19209e-07ZM27.6203 32.15V27.65H23.1203V14.05H18.5703V9.04999H23.1203V-1.43051e-05H28.1203V9.04999H41.8203V14.05H28.1203V27.15H41.3203V22.6H46.3703V27.65H41.8203V32.15H27.6203ZM64.4445 32.15V27.65H59.8945V13.6H64.4445V9.04999H78.5445V13.6H83.1445V27.15H87.6945V32.15H82.6445V27.65H78.5445V32.15H64.4445ZM64.9445 27.15H78.0445V14.05H64.9445V27.15ZM101.219 32.15V9.04999H119.869V13.6H124.469V32.15H119.369V14.05H106.269V32.15H101.219ZM143.089 32.15V27.65H138.539V9.04999H143.589V27.15H156.689V9.04999H161.789V27.65H157.189V32.15H143.089ZM176.836 32.15V9.04999H181.886V32.15H176.836ZM176.836 5.04999V-1.43051e-05H181.886V5.04999H176.836ZM195.943 32.15V9.04999H210.093V13.6H214.093V9.04999H223.743V13.6H228.243V32.15H223.243V14.05H214.593V32.15H209.593V14.05H200.993V32.15H195.943Z" fill="white"/>
</svg>
