<svg width="384" height="74" viewBox="0 0 384 74" fill="none" xmlns="http://www.w3.org/2000/svg">
<path d="M-0.000194967 72.2V7.20001H7.39981V65.2H40.1998V72.2H-0.000194967ZM70.9076 73.4C65.441 73.4 61.2743 71.9333 58.4076 69C55.541 66 54.1076 61.5667 54.1076 55.7V25.2H61.3076V54.6C61.3076 58.8 62.1743 61.8667 63.9076 63.8C65.641 65.6667 68.3743 66.6 72.1076 66.6C74.841 66.6 77.541 66.1333 80.2076 65.2C82.941 64.2667 85.441 62.9667 87.7076 61.3V25.2H94.9076V72.2H89.5076L88.7076 67.2C86.041 69.2667 83.2076 70.8333 80.2076 71.9C77.2743 72.9 74.1743 73.4 70.9076 73.4ZM108.215 72.2V25.2H113.115L113.815 29.1C117.349 25.7 121.149 24 125.215 24C129.482 24 132.449 25.7 134.115 29.1C137.649 25.7 141.449 24 145.515 24C148.649 24 151.115 25 152.915 27C154.782 28.9333 155.715 31.6333 155.715 35.1V72.2H148.815V35.9C148.815 32.2333 147.149 30.4 143.815 30.4C140.749 30.4 137.949 31.6667 135.415 34.2V72.2H128.515V35.9C128.515 32.2333 126.849 30.4 123.515 30.4C120.449 30.4 117.649 31.6667 115.115 34.2V72.2H108.215ZM185.223 72.2V31.8H165.223V25.2H192.423V65.6H212.423V72.2H185.223ZM187.823 13.8C185.957 13.8 184.323 13.1333 182.923 11.8C181.59 10.4 180.923 8.76668 180.923 6.90001C180.923 4.96667 181.59 3.33334 182.923 2.00001C184.323 0.666674 185.957 5.96046e-06 187.823 5.96046e-06C189.757 5.96046e-06 191.39 0.666674 192.723 2.00001C194.057 3.33334 194.723 4.96667 194.723 6.90001C194.723 8.76668 194.057 10.4 192.723 11.8C191.39 13.1333 189.757 13.8 187.823 13.8ZM225.731 72.2V25.2H231.131L231.931 30.2C234.664 28.1333 237.498 26.6 240.431 25.6C243.364 24.5333 246.464 24 249.731 24C255.264 24 259.431 25.4667 262.231 28.4C265.098 31.3333 266.531 35.7667 266.531 41.7V72.2H259.331V42.8C259.331 38.6 258.464 35.5667 256.731 33.7C254.998 31.7667 252.264 30.8 248.531 30.8C245.864 30.8 243.164 31.2667 240.431 32.2C237.764 33.0667 235.264 34.3667 232.931 36.1V72.2H225.731ZM298.939 73.4C293.472 73.4 289.306 71.9333 286.439 69C283.572 66 282.139 61.5667 282.139 55.7V25.2H289.339V54.6C289.339 58.8 290.206 61.8667 291.939 63.8C293.672 65.6667 296.406 66.6 300.139 66.6C302.872 66.6 305.572 66.1333 308.239 65.2C310.972 64.2667 313.472 62.9667 315.739 61.3V25.2H322.939V72.2H317.539L316.739 67.2C314.072 69.2667 311.239 70.8333 308.239 71.9C305.306 72.9 302.206 73.4 298.939 73.4ZM336.247 72.2V25.2H341.147L341.847 29.1C345.38 25.7 349.18 24 353.247 24C357.513 24 360.48 25.7 362.147 29.1C365.68 25.7 369.48 24 373.547 24C376.68 24 379.147 25 380.947 27C382.813 28.9333 383.747 31.6333 383.747 35.1V72.2H376.847V35.9C376.847 32.2333 375.18 30.4 371.847 30.4C368.78 30.4 365.98 31.6667 363.447 34.2V72.2H356.547V35.9C356.547 32.2333 354.88 30.4 351.547 30.4C348.48 30.4 345.68 31.6667 343.147 34.2V72.2H336.247Z" fill="white"/>
</svg>
