<svg width="1147" height="1147" viewBox="0 0 1147 1147" fill="none" xmlns="http://www.w3.org/2000/svg">
<g filter="url(#filter0_d_28_69)">
<path d="M551.098 853.072C743.363 853.072 899.226 697.21 899.226 504.944C899.226 312.679 743.363 156.816 551.098 156.816C358.832 156.816 202.97 312.679 202.97 504.944C202.97 697.21 358.832 853.072 551.098 853.072Z" fill="white"/>
<path d="M551.098 853.072C743.363 853.072 899.226 697.21 899.226 504.944C899.226 312.679 743.363 156.816 551.098 156.816C358.832 156.816 202.97 312.679 202.97 504.944C202.97 697.21 358.832 853.072 551.098 853.072Z" stroke="#242424" stroke-width="10" stroke-miterlimit="10" stroke-linecap="round" stroke-linejoin="round"/>
</g>
<path d="M457.016 671V349.5H598.516V395H643.516V440H689.516V580.5H643.516V626H598.516V671H457.016ZM507.516 621H593.516V575.5H638.516V445H593.516V400H507.516V621Z" fill="#242424"/>
<path d="M352.305 313.944L346.361 307.186L339.528 313.196L320.97 292.095L327.804 286.085L321.794 279.252L342.294 261.223L330.341 247.631L337.925 240.961L374.445 282.487L367.537 288.563L373.48 295.321L352.305 313.944ZM346.451 305.775L366.125 288.472L348.823 268.798L329.149 286.101L346.451 305.775ZM394.101 277.219L369.661 238.013L378.232 232.67L402.672 271.876L394.101 277.219ZM365.428 231.224L360.085 222.653L368.656 217.31L373.999 225.881L365.428 231.224ZM416.661 263.191L398.904 220.54L433.338 206.203L436.836 214.604L445.329 211.068L459.589 245.318L450.172 249.239L436.259 215.819L412.071 225.889L425.985 259.309L416.661 263.191ZM483.366 256.29L481.755 247.435L472.802 249.063L471.012 239.225L480.949 237.417L482.56 246.272L508.435 241.566L505.375 224.742L478.516 229.627L476.888 220.674L467.935 222.302L464.535 203.609L473.488 201.981L471.859 193.028L499.703 187.963L501.331 196.917L510.284 195.288L518.551 240.742L509.598 242.371L511.209 251.226L483.366 256.29ZM477.693 219.511L503.568 214.805L500.508 197.981L474.633 202.687L477.693 219.511ZM537.437 229.667L537.744 220.672L528.649 220.362L529.606 192.278L538.701 192.588L539.011 183.494L567.194 184.454L566.884 193.549L576.079 193.862L575.742 203.756L565.548 203.409L565.854 194.414L539.67 193.522L539.397 201.517L557.587 202.137L557.243 212.231L539.053 211.611L538.777 219.707L564.962 220.599L565.275 211.404L575.469 211.752L575.125 221.846L565.931 221.532L565.621 230.627L537.437 229.667ZM593.011 230.378L595.036 220.484L604.931 222.509L602.905 232.404L593.011 230.378ZM623.979 238.164L644.046 177.075L653.641 180.227L633.575 241.316L623.979 238.164ZM654.191 248.315L673.587 206.384L682.754 210.624L663.358 252.555L654.191 248.315ZM676.946 199.123L681.186 189.956L690.353 194.197L686.113 203.363L676.946 199.123ZM694.388 270L699.432 262.546L691.895 257.446L702.094 242.372L694.557 237.273L705.204 221.537L713.569 227.196L703.482 242.105L710.937 247.148L700.737 262.222L707.529 266.817L717.728 251.743L725.182 256.787L735.269 241.879L743.717 247.595L733.07 263.331L725.45 258.175L715.251 273.249L707.797 268.206L702.753 275.66L694.388 270ZM734.884 299.289L741.22 292.896L734.756 286.49L754.537 266.532L761 272.938L767.406 266.475L787.435 286.326L781.03 292.789L787.564 299.265L780.595 306.297L773.35 299.117L779.686 292.724L761.077 274.281L755.445 279.963L768.372 292.775L761.262 299.949L748.336 287.137L742.634 292.89L761.243 311.333L767.719 304.799L774.963 311.979L767.854 319.153L761.319 312.676L754.913 319.14L734.884 299.289Z" fill="#242424"/>
<path d="M242.557 635.095L266.689 622.764L265.003 619.137L260.995 621.185L258.867 616.605L263.319 614.33L265.237 618.456L269.289 616.386L275.233 629.172L271.181 631.242L273.12 635.413L268.668 637.688L266.518 633.064L270.525 631.016L268.839 627.389L244.707 639.72L242.557 635.095Z" fill="#242424"/>
<path d="M256.747 662.784L260.524 660.338L258.214 656.418L270.006 648.78L272.316 652.7L276.135 650.227L283.294 662.374L279.475 664.848L281.81 668.811L270.017 676.448L267.682 672.485L263.905 674.932L256.747 662.784ZM261.197 660.497L267.848 671.783L278.843 664.662L272.193 653.375L261.197 660.497Z" fill="#242424"/>
<path d="M266.236 694.52L287.568 677.403L290.251 681.078L293.8 678.23L302.114 689.618L298.565 692.466L301.277 696.181L290.319 704.974L287.607 701.259L284.097 704.075L276.078 693.091L269.214 698.599L266.236 694.52ZM279.977 689.962L287.702 700.542L297.919 692.344L290.195 681.763L279.977 689.962Z" fill="#242424"/>
<path d="M305.191 729.066L327.068 705.507L336.971 715.614L333.875 718.948L337.025 722.162L333.963 725.46L337.182 728.745L327.621 739.041L324.402 735.755L321.306 739.089L318.157 735.875L315.095 739.173L305.191 729.066ZM312.128 729.009L318.147 735.152L321.243 731.818L324.392 735.032L333.272 725.469L330.123 722.255L333.185 718.957L327.166 712.814L312.128 729.009Z" fill="#242424"/>
<path d="M333.745 756.429L336.465 752.845L332.971 749.93L341.465 738.739L344.959 741.653L347.71 738.029L358.537 747.06L355.787 750.685L359.319 753.631L356.327 757.574L352.41 754.308L355.131 750.723L345.071 742.332L342.653 745.518L349.641 751.347L346.588 755.37L339.6 749.541L337.151 752.767L347.211 761.158L349.992 757.494L353.908 760.761L350.855 764.783L347.323 761.837L344.572 765.461L333.745 756.429Z" fill="#242424"/>
<path d="M357.486 775.219L360.104 770.959L375.146 781.116L377.266 777.665L365.995 770.054L368.376 766.177L364.605 763.631L367.197 759.414L370.967 761.96L373.349 758.083L388.847 768.548L386.23 772.808L371.146 762.623L369.052 766.031L380.324 773.642L377.942 777.519L381.754 780.093L379.111 784.396L375.298 781.822L372.943 785.656L357.486 775.219Z" fill="#242424"/>
<path d="M386.588 793.787L397.223 773.281L401.61 775.781L390.975 796.288L386.588 793.787ZM399.065 769.73L401.39 765.247L405.777 767.748L403.452 772.231L399.065 769.73Z" fill="#242424"/>
<path d="M401.915 812.224L403.694 808.09L399.58 806.145L401.557 801.552L406.122 803.711L404.343 807.845L416.231 813.467L419.61 805.614L407.271 799.777L409.069 795.598L404.956 793.653L408.711 784.926L412.824 786.872L414.623 782.692L427.414 788.742L425.616 792.922L429.729 794.867L420.598 816.086L416.485 814.14L414.706 818.274L401.915 812.224ZM409.719 795.352L421.606 800.975L424.986 793.121L413.099 787.499L409.719 795.352Z" fill="#242424"/>
<path d="M432.804 816.025L439.849 794.026L457.441 800.218L456.053 804.551L460.392 806.078L454.735 823.744L449.924 822.051L455.445 804.814L443.088 800.464L437.567 817.702L432.804 816.025Z" fill="#242424"/>
<path d="M465.387 826.758L466.448 821.872L484.102 826.089L484.962 822.131L471.734 818.971L472.7 814.525L468.275 813.468L469.326 808.631L473.752 809.688L474.718 805.242L492.906 809.587L491.844 814.473L474.143 810.244L473.293 814.153L486.521 817.313L485.554 821.759L490.029 822.828L488.956 827.762L484.482 826.694L483.526 831.091L465.387 826.758Z" fill="#242424"/>
<path d="M514.196 836.056L517.387 804.064L522.407 804.614L519.216 836.606L514.196 836.056Z" fill="#242424"/>
<path d="M555.452 838.274L555.046 811.177L551.046 811.243L551.114 815.742L546.064 815.826L545.99 810.826L550.539 810.751L550.471 806.202L564.569 805.97L564.637 810.519L569.236 810.444L569.311 815.443L564.212 815.527L564.145 811.027L560.145 811.093L560.551 838.19L555.452 838.274Z" fill="#242424"/>
<path d="M585.038 836.751L584.542 832.279L580.026 832.829L578.479 818.864L582.996 818.314L582.495 813.792L596.492 812.088L596.992 816.611L601.559 816.055L603.105 830.019L598.539 830.575L599.034 835.048L585.038 836.751ZM584.984 831.721L597.988 830.139L596.546 817.118L583.542 818.701L584.984 831.721Z" fill="#242424"/>
<path d="M616.168 841.273L610.579 814.5L615.014 813.483L614.084 809.029L627.827 805.875L628.757 810.329L633.24 809.3L636.112 823.054L631.628 824.083L632.548 828.488L619.292 831.529L621.091 840.143L616.168 841.273ZM618.27 826.635L631.039 823.705L628.361 810.881L615.593 813.811L618.27 826.635Z" fill="#242424"/>
<path d="M662.658 819.853L652.985 794.003L657.193 792.272L655.599 788.011L660.223 786.109L661.817 790.371L666.072 788.621L669.243 797.097L672.943 795.575L669.771 787.099L674.025 785.35L672.431 781.088L677.101 779.167L678.696 783.429L682.857 781.717L692.53 807.567L687.906 809.468L678.408 784.087L674.663 785.628L677.817 794.057L673.563 795.807L678.329 808.544L673.705 810.446L668.939 797.709L664.684 799.458L661.53 791.029L657.831 792.551L667.329 817.932L662.658 819.853Z" fill="#242424"/>
<path d="M706.349 800.579L704.3 796.573L700.334 798.803L693.935 786.295L697.901 784.065L695.829 780.014L708.119 773.103L710.191 777.154L714.201 774.899L720.372 786.963L724.338 784.732L726.615 789.184L722.214 791.659L720.164 787.653L716.59 789.662L718.64 793.668L706.349 800.579ZM704.508 795.883L715.927 789.462L709.96 777.8L698.542 784.22L704.508 795.883Z" fill="#242424"/>
<path d="M743.089 778.243L740.617 774.483L736.97 777.119L729.497 765.756L725.81 768.421L723.062 764.244L726.75 761.578L721.777 754.017L725.83 751.088L730.802 758.649L741.906 750.624L744.653 754.802L733.55 762.827L740.747 773.772L751.446 766.04L748.946 762.238L753.038 759.28L755.813 763.5L752.126 766.165L754.598 769.925L743.089 778.243Z" fill="#242424"/>
<path d="M770.217 757.426L767.367 753.944L763.984 756.987L755.085 746.115L758.468 743.072L755.586 739.551L766.068 730.121L768.95 733.642L772.37 730.565L775.505 734.396L771.714 737.806L768.863 734.324L759.124 743.086L761.658 746.181L768.423 740.095L771.622 744.003L764.857 750.089L767.422 753.223L777.161 744.461L774.247 740.902L778.039 737.491L781.237 741.399L777.818 744.475L780.7 747.996L770.217 757.426Z" fill="#242424"/>
<path d="M792.583 736.829L779.465 723.713L782.527 720.347L779.31 717.13L788.798 706.7L792.015 709.917L795.111 706.515L798.611 710.014L795.179 713.787L791.997 710.605L783.182 720.295L795.981 733.093L792.583 736.829Z" fill="#242424"/>
<path d="M815.7 710.549L798.194 695.478L801.308 691.502L818.814 706.574L815.7 710.549ZM795.163 692.868L791.335 689.574L794.45 685.598L798.277 688.893L795.163 692.868Z" fill="#242424"/>
<path d="M829.004 693.231L825.368 690.58L822.853 694.371L811.499 686.095L814.014 682.303L810.338 679.623L818.131 667.873L821.808 670.553L824.351 666.719L835.3 674.702L837.815 670.91L841.855 673.855L839.064 678.064L835.428 675.413L833.162 678.83L836.798 681.48L829.004 693.231ZM825.24 689.869L832.481 678.952L821.895 671.235L814.654 682.151L825.24 689.869Z" fill="#242424"/>
<path d="M847.606 663.892L820.172 647.129L822.626 642.715L850.06 659.478L847.606 663.892Z" fill="#242424"/>
<path d="M856.112 648.696L851.66 646.421L859.311 629.962L855.705 628.12L849.971 640.452L845.92 638.382L844.001 642.508L839.594 640.256L841.512 636.13L837.46 634.059L845.343 617.102L849.796 619.377L842.123 635.881L845.685 637.701L851.418 625.369L855.47 627.439L857.409 623.268L861.906 625.565L859.967 629.737L863.974 631.784L856.112 648.696Z" fill="#242424"/>
<defs>
<filter id="filter0_d_28_69" x="193.97" y="151.816" width="714.256" height="714.256" filterUnits="userSpaceOnUse" color-interpolation-filters="sRGB">
<feFlood flood-opacity="0" result="BackgroundImageFix"/>
<feColorMatrix in="SourceAlpha" type="matrix" values="0 0 0 0 0 0 0 0 0 0 0 0 0 0 0 0 0 0 127 0" result="hardAlpha"/>
<feOffset dy="4"/>
<feGaussianBlur stdDeviation="2"/>
<feComposite in2="hardAlpha" operator="out"/>
<feColorMatrix type="matrix" values="0 0 0 0 0 0 0 0 0 0 0 0 0 0 0 0 0 0 0.25 0"/>
<feBlend mode="normal" in2="BackgroundImageFix" result="effect1_dropShadow_28_69"/>
<feBlend mode="normal" in="SourceGraphic" in2="effect1_dropShadow_28_69" result="shape"/>
</filter>
</defs>
</svg>
