<svg width="1147" height="1147" viewBox="0 0 1147 1147" fill="none" xmlns="http://www.w3.org/2000/svg">
<g filter="url(#filter0_d_28_69)">
<path d="M551.098 853.072C743.363 853.072 899.226 697.21 899.226 504.944C899.226 312.679 743.363 156.816 551.098 156.816C358.832 156.816 202.97 312.679 202.97 504.944C202.97 697.21 358.832 853.072 551.098 853.072Z" fill="white"/>
<path d="M551.098 853.072C743.363 853.072 899.226 697.21 899.226 504.944C899.226 312.679 743.363 156.816 551.098 156.816C358.832 156.816 202.97 312.679 202.97 504.944C202.97 697.21 358.832 853.072 551.098 853.072Z" stroke="#242424" stroke-width="10" stroke-miterlimit="10" stroke-linecap="round" stroke-linejoin="round"/>
</g>
<g filter="url(#filter1_d_28_69)">
<path d="M551 865C749.27 865 910 704.27 910 506C910 307.73 749.27 147 551 147C352.73 147 192 307.73 192 506C192 704.27 352.73 865 551 865Z" stroke="#242424" stroke-width="10" stroke-miterlimit="10" stroke-linecap="round" stroke-linejoin="round" shape-rendering="crispEdges"/>
</g>
<path d="M295.711 900.574L339.629 835.993C400.72 875.152 473.303 897.881 551.098 897.881C767.76 897.881 944.03 721.611 944.03 504.949C944.03 377.694 883.208 264.401 789.127 192.539L850.734 127.039" stroke="white" stroke-width="10" stroke-miterlimit="10" stroke-linecap="round" stroke-linejoin="round"/>
<path d="M299.728 912.074L343.373 845.997C405.362 885.202 478.776 907.593 557.22 906.829C775.69 904.702 951.687 723.796 949.543 503.563C948.283 374.212 885.832 259.649 790.255 187.527L851.727 120.343" stroke="white" stroke-width="10" stroke-miterlimit="10" stroke-linecap="round" stroke-linejoin="round"/>
<path d="M573.5 900.574V985.703" stroke="white" stroke-width="10" stroke-miterlimit="10" stroke-linecap="round" stroke-linejoin="round"/>
<path d="M583 900.999V986.128" stroke="white" stroke-width="10" stroke-miterlimit="10" stroke-linecap="round" stroke-linejoin="round"/>
<path d="M376.359 990.183H770.641" stroke="white" stroke-width="10" stroke-miterlimit="10" stroke-linecap="round" stroke-linejoin="round"/>
<path d="M376 998.999H770.281" stroke="white" stroke-width="10" stroke-miterlimit="10" stroke-linecap="round" stroke-linejoin="round"/>
<path d="M457.016 671V349.5H598.516V395H643.516V440H689.516V580.5H643.516V626H598.516V671H457.016ZM507.516 621H593.516V575.5H638.516V445H593.516V400H507.516V621Z" fill="#242424"/>
<path d="M349.099 317.335L343.042 310.678L336.311 316.802L317.4 296.019L324.13 289.894L318.006 283.164L338.198 264.79L326.016 251.403L333.486 244.606L370.704 285.507L363.899 291.699L369.957 298.356L349.099 317.335ZM343.109 309.265L362.487 291.632L344.854 272.254L325.476 289.887L343.109 309.265ZM390.268 279.907L365.167 241.12L373.647 235.633L398.747 274.419L390.268 279.907ZM360.821 234.404L355.334 225.925L363.813 220.437L369.3 228.917L360.821 234.404ZM412.587 265.499L394.111 223.155L428.298 208.237L431.937 216.578L440.37 212.899L455.207 246.903L445.858 250.982L431.381 217.803L407.367 228.281L421.844 261.46L412.587 265.499ZM479.166 257.47L477.405 248.644L468.481 250.424L466.525 240.617L476.43 238.641L478.191 247.468L503.983 242.324L500.638 225.554L473.866 230.893L472.086 221.969L463.162 223.749L459.446 205.116L468.37 203.336L466.59 194.412L494.344 188.877L496.124 197.801L505.048 196.022L514.083 241.329L505.159 243.109L506.919 251.935L479.166 257.47ZM472.871 220.793L498.663 215.649L495.319 198.88L469.527 204.023L472.871 220.793ZM532.779 229.936L532.933 220.937L523.835 220.781L524.316 192.685L533.415 192.841L533.571 183.743L561.767 184.226L561.611 193.324L570.809 193.482L570.64 203.381L560.441 203.206L560.595 194.207L534.399 193.758L534.262 201.757L552.46 202.069L552.286 212.167L534.089 211.856L533.95 219.954L560.146 220.403L560.304 211.205L570.503 211.379L570.33 221.478L561.131 221.32L560.975 230.419L532.779 229.936ZM588.356 229.707L590.214 219.779L600.142 221.637L598.284 231.564L588.356 229.707ZM619.453 236.967L638.482 175.547L648.13 178.536L629.1 239.956L619.453 236.967ZM649.832 246.605L668.516 204.352L677.753 208.436L659.069 250.69L649.832 246.605ZM671.751 197.035L675.835 187.798L685.073 191.883L680.988 201.12L671.751 197.035ZM690.39 267.607L695.307 260.068L687.685 255.097L697.627 239.853L690.005 234.882L700.384 218.967L708.844 224.485L699.011 239.561L706.549 244.478L696.607 259.722L703.475 264.202L713.418 248.958L720.956 253.874L730.789 238.798L739.333 244.37L728.953 260.284L721.247 255.258L711.305 270.502L703.766 265.586L698.85 273.124L690.39 267.607ZM731.376 296.206L737.602 289.707L731.032 283.412L750.472 263.122L757.043 269.417L763.338 262.846L783.701 282.356L777.405 288.927L784.048 295.291L777.199 302.44L769.834 295.383L776.06 288.885L757.142 270.759L751.607 276.535L764.749 289.127L757.762 296.42L744.62 283.828L739.016 289.677L757.935 307.803L764.299 301.16L771.664 308.216L764.677 315.509L758.034 309.145L751.738 315.715L731.376 296.206Z" fill="#242424"/>
<path d="M376 999V990" stroke="white" stroke-width="10" stroke-miterlimit="10" stroke-linecap="round" stroke-linejoin="round"/>
<path d="M299 912L296 901" stroke="white" stroke-width="10" stroke-miterlimit="10" stroke-linecap="round" stroke-linejoin="round"/>
<path d="M851 126L852 121" stroke="white" stroke-width="10" stroke-miterlimit="10" stroke-linecap="round" stroke-linejoin="round"/>
<defs>
<filter id="filter0_d_28_69" x="193.97" y="151.816" width="714.256" height="714.256" filterUnits="userSpaceOnUse" color-interpolation-filters="sRGB">
<feFlood flood-opacity="0" result="BackgroundImageFix"/>
<feColorMatrix in="SourceAlpha" type="matrix" values="0 0 0 0 0 0 0 0 0 0 0 0 0 0 0 0 0 0 127 0" result="hardAlpha"/>
<feOffset dy="4"/>
<feGaussianBlur stdDeviation="2"/>
<feComposite in2="hardAlpha" operator="out"/>
<feColorMatrix type="matrix" values="0 0 0 0 0 0 0 0 0 0 0 0 0 0 0 0 0 0 0.25 0"/>
<feBlend mode="normal" in2="BackgroundImageFix" result="effect1_dropShadow_28_69"/>
<feBlend mode="normal" in="SourceGraphic" in2="effect1_dropShadow_28_69" result="shape"/>
</filter>
<filter id="filter1_d_28_69" x="183" y="142" width="736" height="736" filterUnits="userSpaceOnUse" color-interpolation-filters="sRGB">
<feFlood flood-opacity="0" result="BackgroundImageFix"/>
<feColorMatrix in="SourceAlpha" type="matrix" values="0 0 0 0 0 0 0 0 0 0 0 0 0 0 0 0 0 0 127 0" result="hardAlpha"/>
<feOffset dy="4"/>
<feGaussianBlur stdDeviation="2"/>
<feComposite in2="hardAlpha" operator="out"/>
<feColorMatrix type="matrix" values="0 0 0 0 0 0 0 0 0 0 0 0 0 0 0 0 0 0 0.25 0"/>
<feBlend mode="normal" in2="BackgroundImageFix" result="effect1_dropShadow_28_69"/>
<feBlend mode="normal" in="SourceGraphic" in2="effect1_dropShadow_28_69" result="shape"/>
</filter>
</defs>
</svg>
