<svg width="165" height="68" viewBox="0 0 165 68" fill="none" xmlns="http://www.w3.org/2000/svg">
<path d="M21.5998 66.2V8.20001H-0.000195265V1.20001H50.5998V8.20001H28.9998V66.2H21.5998ZM86.5076 67.4C77.9076 67.4 71.341 64.5 66.8076 58.7C62.2743 52.9 60.0076 44.5667 60.0076 33.7C60.0076 22.7667 62.2743 14.4333 66.8076 8.70001C71.341 2.90001 77.9076 6.19888e-06 86.5076 6.19888e-06C89.9076 6.19888e-06 93.0076 0.500008 95.8076 1.50001C98.6743 2.50001 101.441 4.13334 104.108 6.40001L100.108 12.5C97.9743 10.5667 95.8076 9.20001 93.6076 8.40001C91.4743 7.53334 89.1076 7.10001 86.5076 7.10001C73.9076 7.10001 67.6076 15.9667 67.6076 33.7C67.6076 51.4333 73.9076 60.3 86.5076 60.3C89.441 60.3 92.0743 59.8 94.4076 58.8C96.741 57.7333 99.141 55.9667 101.608 53.5L105.908 59.3C102.908 62.1667 99.841 64.2333 96.7076 65.5C93.641 66.7667 90.241 67.4 86.5076 67.4ZM146.015 66.2V51.5H113.915V45.9L139.515 3.20001H147.615L122.815 44.7H146.015V22.1L153.415 18.1V44.7H164.915V51.5H153.415V66.2H146.015Z" fill="white"/>
</svg>
